<?xml version="1.0" encoding="UTF-8" standalone="no"?>
<!-- Created with Inkscape (http://www.inkscape.org/) -->

<svg
   xmlns:dc="http://purl.org/dc/elements/1.1/"
   xmlns:cc="http://creativecommons.org/ns#"
   xmlns:rdf="http://www.w3.org/1999/02/22-rdf-syntax-ns#"
   xmlns:svg="http://www.w3.org/2000/svg"
   xmlns="http://www.w3.org/2000/svg"
   xmlns:sodipodi="http://sodipodi.sourceforge.net/DTD/sodipodi-0.dtd"
   xmlns:inkscape="http://www.inkscape.org/namespaces/inkscape"
   width="640"
   height="480"
   id="svg3344"
   version="1.1"
   inkscape:version="0.91 r13725"
   viewBox="0 0 640 480"
   sodipodi:docname="logo.svg">
  <defs
     id="defs3346" />
  <sodipodi:namedview
     id="base"
     pagecolor="#ffffff"
     bordercolor="#666666"
     borderopacity="1.0"
     inkscape:pageopacity="0.0"
     inkscape:pageshadow="2"
     inkscape:zoom="0.54781349"
     inkscape:cx="230.76379"
     inkscape:cy="268.70776"
     inkscape:current-layer="layer1"
     inkscape:document-units="px"
     showgrid="false"
     showguides="false"
     inkscape:guide-bbox="true"
     inkscape:window-width="1280"
     inkscape:window-height="657"
     inkscape:window-x="-8"
     inkscape:window-y="-8"
     inkscape:window-maximized="1">
    <sodipodi:guide
       position="-7.7446809,267.19149"
       orientation="0,1"
       id="guide3388" />
  </sodipodi:namedview>
  <metadata
     id="metadata3349">
    <rdf:RDF>
      <cc:Work
         rdf:about="">
        <dc:format>image/svg+xml</dc:format>
        <dc:type
           rdf:resource="http://purl.org/dc/dcmitype/StillImage" />
      </cc:Work>
    </rdf:RDF>
  </metadata>
  <g
     id="layer1"
     inkscape:label="Layer 1"
     inkscape:groupmode="layer">
    <g
       id="g3665"
       transform="matrix(1.0396022,0,-0.25857576,1.5085604,38.646791,-87.145432)">
      <flowRoot
         transform="matrix(1,0,0,0.95733371,0,1.2799372)"
         style="font-style:normal;font-variant:normal;font-weight:bold;font-stretch:normal;font-size:180px;line-height:125%;font-family:sans-serif;-inkscape-font-specification:'sans-serif Bold';letter-spacing:0px;word-spacing:0px;fill:#000000;fill-opacity:1;stroke:none;stroke-width:1px;stroke-linecap:butt;stroke-linejoin:miter;stroke-opacity:1"
         id="flowRoot3370"
         xml:space="preserve"><flowRegion
           id="flowRegion3372"><rect
             style="font-style:normal;font-variant:normal;font-weight:bold;font-stretch:normal;font-size:180px;font-family:sans-serif;-inkscape-font-specification:'sans-serif Bold'"
             y="6.2836852"
             x="5.1631207"
             height="471.13477"
             width="631.19147"
             id="rect3374" /></flowRegion><flowPara
           id="flowPara3376"></flowPara></flowRoot>      <g
         transform="translate(19.167107,49.286847)"
         id="g3650">
        <path
           id="path3485"
           style="font-style:normal;font-variant:normal;font-weight:bold;font-stretch:normal;font-size:90px;line-height:125%;font-family:sans-serif;-inkscape-font-specification:'sans-serif Bold';letter-spacing:0px;word-spacing:0px;fill:#000000;fill-opacity:1;stroke:none;stroke-width:1px;stroke-linecap:butt;stroke-linejoin:miter;stroke-opacity:1"
           d="m 19.878906,38.24043 16.918946,0 0,37.606707 24.389648,-37.606707 19.643555,0 -31.59668,48.785215 34.848633,54.236465 -21.181641,0 -26.103515,-40.57385 0,40.57385 -16.918946,0 0,-103.02168 z"
           inkscape:connector-curvature="0" />
        <path
           id="path3487"
           style="font-style:normal;font-variant:normal;font-weight:bold;font-stretch:normal;font-size:90px;line-height:125%;font-family:sans-serif;-inkscape-font-specification:'sans-serif Bold';letter-spacing:0px;word-spacing:0px;fill:#000000;fill-opacity:1;stroke:none;stroke-width:1px;stroke-linecap:butt;stroke-linejoin:miter;stroke-opacity:1"
           d="m 110.80176,79.780315 q -5.22949,0 -7.99805,5.93427 -2.72461,5.865267 -2.72461,16.974775 0,11.1095 2.72461,17.04377 2.76856,5.86527 7.99805,5.86527 5.1416,0 7.86621,-5.86527 2.72461,-5.93427 2.72461,-17.04377 0,-11.109508 -2.72461,-16.974775 -2.72461,-5.93427 -7.86621,-5.93427 z m 0,-17.664801 q 12.70019,0 19.81933,10.764489 7.16309,10.764489 7.16309,29.809357 0,19.04486 -7.16309,29.80935 -7.11914,10.76449 -19.81933,10.76449 -12.744143,0 -19.951174,-10.76449 -7.163086,-10.76449 -7.163086,-29.80935 0,-19.044868 7.163086,-29.809357 7.207031,-10.764489 19.951174,-10.764489 z"
           inkscape:connector-curvature="0" />
        <path
           id="path3489"
           style="font-style:normal;font-variant:normal;font-weight:bold;font-stretch:normal;font-size:90px;line-height:125%;font-family:sans-serif;-inkscape-font-specification:'sans-serif Bold';letter-spacing:0px;word-spacing:0px;fill:#000000;fill-opacity:1;stroke:none;stroke-width:1px;stroke-linecap:butt;stroke-linejoin:miter;stroke-opacity:1"
           d="m 187.70605,66.393709 0,18.768852 q -5.05371,-3.312151 -9.75585,-4.968227 -4.70215,-1.656074 -8.87696,-1.656074 -4.48242,0 -6.67969,1.794081 -2.15332,1.725079 -2.15332,5.382244 0,2.967136 1.62598,4.554207 1.66992,1.587072 5.93262,2.346106 l 2.76855,0.621028 q 12.08496,2.41511 16.25977,7.935364 4.1748,5.52025 4.1748,17.31978 0,12.35156 -5.80078,18.56185 -5.80078,6.21028 -17.31445,6.21028 -4.87793,0 -10.10742,-1.24207 -5.18555,-1.17305 -10.67871,-3.58815 l 0,-18.76885 q 4.70214,3.58816 9.62402,5.38224 4.96582,1.79408 10.06348,1.79408 4.61425,0 6.94336,-2.00109 2.3291,-2.00109 2.3291,-5.93427 0,-3.31215 -1.62598,-4.89922 -1.58203,-1.65608 -6.37207,-2.55312 l -2.76855,-0.55202 q -10.50293,-2.0701 -14.72168,-7.65935 -4.21875,-5.589253 -4.21875,-16.974769 0,-12.282558 5.36132,-18.216828 5.36133,-5.934269 16.43555,-5.934269 4.35059,0 9.14063,1.035047 4.79003,1.035048 10.41503,3.243148 z"
           inkscape:connector-curvature="0" />
        <path
           id="path3491"
           style="font-style:normal;font-variant:normal;font-weight:bold;font-stretch:normal;font-size:90px;line-height:125%;font-family:sans-serif;-inkscape-font-specification:'sans-serif Bold';letter-spacing:0px;word-spacing:0px;fill:#000000;fill-opacity:1;stroke:none;stroke-width:1px;stroke-linecap:butt;stroke-linejoin:miter;stroke-opacity:1"
           d="m 252.34961,94.201971 0,47.060139 -15.82031,0 0,-7.65935 0,-28.22228 q 0,-10.143463 -0.30762,-13.938635 -0.26367,-3.795172 -0.9668,-5.589253 -0.92285,-2.41511 -2.50488,-3.726169 -1.58203,-1.380063 -3.60352,-1.380063 -4.92187,0 -7.73437,6.003272 -2.8125,5.93427 -2.8125,16.491748 l 0,38.02073 -15.73242,0 0,-107.368878 15.73242,0 0,41.40188 q 3.55957,-6.762307 7.55859,-9.936451 3.99903,-3.243147 8.83301,-3.243147 8.52539,0 12.91992,8.211372 4.43848,8.211374 4.43848,23.875085 z"
           inkscape:connector-curvature="0" />
        <path
           id="path3493"
           style="font-style:normal;font-variant:normal;font-weight:bold;font-stretch:normal;font-size:90px;line-height:125%;font-family:sans-serif;-inkscape-font-specification:'sans-serif Bold';letter-spacing:0px;word-spacing:0px;fill:#000000;fill-opacity:1;stroke:none;stroke-width:1px;stroke-linecap:butt;stroke-linejoin:miter;stroke-opacity:1"
           d="m 290.4502,79.780315 q -5.2295,0 -7.99805,5.93427 -2.72461,5.865267 -2.72461,16.974775 0,11.1095 2.72461,17.04377 2.76855,5.86527 7.99805,5.86527 5.1416,0 7.86621,-5.86527 2.72461,-5.93427 2.72461,-17.04377 0,-11.109508 -2.72461,-16.974775 -2.72461,-5.93427 -7.86621,-5.93427 z m 0,-17.664801 q 12.70019,0 19.81933,10.764489 7.16309,10.764489 7.16309,29.809357 0,19.04486 -7.16309,29.80935 -7.11914,10.76449 -19.81933,10.76449 -12.74415,0 -19.95118,-10.76449 -7.16308,-10.76449 -7.16308,-29.80935 0,-19.044868 7.16308,-29.809357 7.20703,-10.764489 19.95118,-10.764489 z"
           inkscape:connector-curvature="0" />
        <path
           id="path3495"
           style="font-style:normal;font-variant:normal;font-weight:bold;font-stretch:normal;font-size:90px;line-height:125%;font-family:sans-serif;-inkscape-font-specification:'sans-serif Bold';letter-spacing:0px;word-spacing:0px;fill:#000000;fill-opacity:1;stroke:none;stroke-width:1px;stroke-linecap:butt;stroke-linejoin:miter;stroke-opacity:1"
           d="m 344.63477,130.0836 0,40.57384 -15.73243,0 0,-106.678841 15.73243,0 0,11.316513 q 3.25195,-6.762307 7.20703,-9.936451 3.95507,-3.243147 9.09668,-3.243147 9.09668,0 14.9414,11.385517 5.84473,11.316513 5.84473,29.188329 0,17.87181 -5.84473,29.25732 -5.84472,11.31652 -14.9414,11.31652 -5.14161,0 -9.09668,-3.17414 -3.95508,-3.24315 -7.20703,-10.00546 z m 10.45898,-50.027271 q -5.05371,0 -7.77832,5.865265 -2.68066,5.796263 -2.68066,16.767766 0,10.97149 2.68066,16.83676 2.72461,5.79626 7.77832,5.79626 5.05371,0 7.69043,-5.79626 2.68066,-5.79626 2.68066,-16.83676 0,-11.040505 -2.68066,-16.836768 -2.63672,-5.796263 -7.69043,-5.796263 z"
           inkscape:connector-curvature="0" />
        <g
           transform="matrix(2.603009,0,0,3.2718712,-30.829872,-27.862802)"
           style="font-style:normal;font-variant:normal;font-weight:bold;font-stretch:normal;font-size:39.99990845px;line-height:125%;font-family:'Segoe Print';-inkscape-font-specification:'Segoe Print, Bold';text-align:start;letter-spacing:0px;word-spacing:0px;writing-mode:lr-tb;text-anchor:start;fill:#ff0000;fill-opacity:1;stroke:none;stroke-width:1px;stroke-linecap:butt;stroke-linejoin:miter;stroke-opacity:1"
           id="flowRoot3452">
          <path
             inkscape:connector-curvature="0"
             d="m 36.17964,30.711876 -7.382795,6.523422 8.164043,6.171861 q 0.996092,0.761717 1.93359,1.347653 l 0.917966,0.605468 q 1.054685,0.624998 4.335928,0.859373 0.234374,0.761717 0.234374,1.113278 0,1.347654 -0.781248,2.226558 -0.781248,0.859373 -2.304682,0.859373 -1.992183,0 -5.312488,-2.42187 L 28.40622,42.45013 q -2.578119,-1.933589 -3.789053,-2.460932 -0.878905,0.253906 -1.425778,6.582016 -0.234375,2.519526 -0.820311,3.671867 -0.585936,1.171872 -1.933589,1.171872 -1.13281,0 -1.738278,-0.683592 -0.605467,-0.664061 -0.605467,-1.738277 0,-0.468749 0.195312,-1.328122 0.449218,-1.914058 1.601559,-13.593719 1.035154,-9.843728 1.718746,-11.289037 0.703123,-1.46484 2.167964,-1.46484 2.460932,0 2.460932,2.734369 -1.230466,5.039051 -1.77734,11.582004 2.773431,-2.089839 3.984366,-3.417961 0.468749,-0.468748 1.171872,-1.132809 1.367185,-1.28906 2.871087,-2.773432 1.503903,-1.484371 2.207027,-2.734368 0.996091,-1.796871 1.62109,-2.519526 0.624998,-0.742186 1.347653,-0.742186 0.82031,0 1.816402,0.820311 1.015623,0.820311 1.015623,1.835933 0,0.761717 -1.054686,2.285151 -1.054685,1.503903 -3.261711,3.457024 z"
             style="font-style:normal;font-variant:normal;font-weight:bold;font-stretch:normal;font-size:39.99990845px;line-height:125%;font-family:'Segoe Print';-inkscape-font-specification:'Segoe Print, Bold';text-align:start;writing-mode:lr-tb;text-anchor:start;fill:#ff0000"
             id="path3510" />
          <path
             inkscape:connector-curvature="0"
             d="m 65.867072,39.950136 q -1.308591,4.570302 -4.980458,7.714826 -3.652335,3.124993 -7.304671,3.124993 -2.890618,0 -4.765614,-2.10937 -1.874995,-2.128902 -1.874995,-5.214832 0,-5.039051 3.437492,-9.921853 3.437492,-4.882801 8.339824,-4.882801 3.339837,0 5.410144,2.480463 2.070308,2.460932 2.070308,5.878893 0,1.484372 -0.33203,2.91015 l 0,0.01953 z M 55.710845,33.778275 q -1.367185,1.210935 -2.675775,3.867179 -1.308591,2.656243 -1.308591,5.332019 0,1.62109 0.585936,2.675775 0.605467,1.054685 1.582028,1.054685 2.421869,0 5.039051,-2.871087 2.617181,-2.871088 2.617181,-6.445298 0,-2.011714 -0.859373,-3.300774 -0.839842,-1.308591 -2.363276,-1.308591 -1.445309,0 -2.59765,0.996092 l -0.01953,0 z"
             style="font-style:normal;font-variant:normal;font-weight:bold;font-stretch:normal;font-size:39.99990845px;line-height:125%;font-family:'Segoe Print';-inkscape-font-specification:'Segoe Print, Bold';text-align:start;writing-mode:lr-tb;text-anchor:start;fill:#ff0000"
             id="path3512" />
          <path
             inkscape:connector-curvature="0"
             d="m 79.187352,44.891531 q -0.07813,-1.054685 -3.359367,-2.578119 -4.023429,-1.93359 -5.136707,-3.320305 -1.113279,-1.406247 -1.113279,-3.046868 0,-3.457024 3.867178,-6.035143 3.88671,-2.59765 7.246078,-2.59765 3.300773,0 3.300773,2.871087 0,0.761717 -0.761717,1.367184 -0.742185,0.605468 -1.269528,0.605468 -0.214843,0 -0.761717,-0.273437 -0.546874,-0.273437 -0.839842,-0.273437 -1.738277,0 -3.828116,1.171872 -2.089839,1.171873 -2.089839,2.734369 0,0.761717 0.742186,1.484372 0.742186,0.703123 3.027337,1.777339 3.378898,1.601559 4.453114,2.890619 1.074217,1.289059 1.074217,2.851556 0,2.851556 -3.867179,4.765614 -3.847647,1.894527 -8.652324,1.894527 -3.535148,0 -3.535148,-2.558588 0,-0.937498 0.742186,-1.601559 0.742186,-0.664061 1.660152,-0.664061 0.371093,0 1.152341,0.273437 0.781248,0.292968 1.445309,0.292968 1.835934,0 3.847648,-0.585936 2.011714,-0.585936 2.656244,-1.445309 z"
             style="font-style:normal;font-variant:normal;font-weight:bold;font-stretch:normal;font-size:39.99990845px;line-height:125%;font-family:'Segoe Print';-inkscape-font-specification:'Segoe Print, Bold';text-align:start;writing-mode:lr-tb;text-anchor:start;fill:#ff0000"
             id="path3514" />
          <path
             inkscape:connector-curvature="0"
             d="m 91.2967,40.848571 q 3.24218,-6.074205 5.585924,-8.2617 2.363276,-2.207026 4.765616,-2.207026 1.66015,0 2.7539,1.152341 1.11328,1.13281 1.62109,5.937487 0.21484,2.285151 0.54687,3.691397 0.33203,1.406247 0.74219,2.499995 0.41015,1.074216 1.17187,2.031245 0.58594,0.761717 0.58594,1.46484 0,0.703124 -0.6836,1.28906 -0.66406,0.585936 -1.54296,0.585936 -1.73828,0 -3.08593,-1.894527 -1.34765,-1.894527 -1.60156,-5.234363 -0.3125,-4.082022 -0.68359,-5.214832 -0.35156,-1.132809 -1.19141,-1.132809 -1.132806,0 -4.414048,4.531239 -3.261712,4.511709 -4.707021,7.226546 -0.898435,2.050777 -1.386715,2.656244 -0.488281,0.605467 -1.210935,0.605467 -1.191404,0 -1.933589,-0.585936 -0.742186,-0.585936 -0.742186,-1.660152 0,-0.527343 0.527342,-3.300774 1.992183,-10.488257 3.261712,-22.324168 0.312499,-2.851556 1.191403,-3.925772 0.898436,-1.093747 1.640621,-1.093747 1.035154,0 1.796871,0.800779 0.761717,0.80078 0.761717,2.226558 0,2.187495 -0.527342,5.03905 -0.527343,2.851556 -1.972652,9.101542 -0.878904,3.769523 -1.269528,5.99608 z"
             style="font-style:normal;font-variant:normal;font-weight:bold;font-stretch:normal;font-size:39.99990845px;line-height:125%;font-family:'Segoe Print';-inkscape-font-specification:'Segoe Print, Bold';text-align:start;writing-mode:lr-tb;text-anchor:start;fill:#ff0000"
             id="path3516" />
          <path
             inkscape:connector-curvature="0"
             d="m 130.32005,39.950136 q -1.30859,4.570302 -4.98046,7.714826 -3.65233,3.124993 -7.30467,3.124993 -2.89061,0 -4.76561,-2.10937 -1.875,-2.128902 -1.875,-5.214832 0,-5.039051 3.4375,-9.921853 3.43749,-4.882801 8.33982,-4.882801 3.33984,0 5.41014,2.480463 2.07031,2.460932 2.07031,5.878893 0,1.484372 -0.33203,2.91015 l 0,0.01953 z m -10.15623,-6.171861 q -1.36718,1.210935 -2.67577,3.867179 -1.30859,2.656243 -1.30859,5.332019 0,1.62109 0.58594,2.675775 0.60546,1.054685 1.58202,1.054685 2.42187,0 5.03905,-2.871087 2.61719,-2.871088 2.61719,-6.445298 0,-2.011714 -0.85938,-3.300774 -0.83984,-1.308591 -2.36327,-1.308591 -1.44531,0 -2.59765,0.996092 l -0.0195,0 z"
             style="font-style:normal;font-variant:normal;font-weight:bold;font-stretch:normal;font-size:39.99990845px;line-height:125%;font-family:'Segoe Print';-inkscape-font-specification:'Segoe Print, Bold';text-align:start;writing-mode:lr-tb;text-anchor:start;fill:#ff0000"
             id="path3518" />
          <path
             inkscape:connector-curvature="0"
             d="m 138.97237,48.465741 q -0.33203,1.367185 -0.66406,4.140616 l -0.9375,7.675763 q -0.23437,1.874996 -0.91796,2.597651 -0.66406,0.722654 -1.64062,0.722654 -0.87891,0 -1.67969,-0.664061 -0.78124,-0.644529 -0.78124,-1.445309 0,-1.582027 0.48828,-3.652335 2.91014,-11.621067 3.18358,-24.121039 l 0,-0.390624 q 0,-2.617181 0.13672,-3.476554 0.15625,-0.878905 0.83984,-1.542966 0.70313,-0.664061 1.97265,-0.664061 2.12891,0 2.12891,3.261712 0,1.328122 -0.48828,4.511708 l -0.19532,1.347653 q 2.22656,-3.710929 5.29296,-6.152329 3.0664,-2.460932 5.48827,-2.460932 2.18749,0 3.71093,1.562496 1.54296,1.562497 1.54296,3.925772 0,6.30858 -4.90233,11.484349 -4.8828,5.156238 -9.66795,5.156238 -2.26562,0 -2.91015,-1.816402 z m 11.46482,-15.87887 q -2.38281,0 -6.19139,4.648427 -3.78905,4.648427 -3.78905,7.304671 0,0.683592 0.66406,1.230466 0.68359,0.527342 1.58202,0.527342 2.48047,0 5.68358,-3.886709 3.22265,-3.906241 3.22265,-7.539046 0,-1.210934 -0.37109,-1.738277 -0.37109,-0.546874 -0.80078,-0.546874 z"
             style="font-style:normal;font-variant:normal;font-weight:bold;font-stretch:normal;font-size:39.99990845px;line-height:125%;font-family:'Segoe Print';-inkscape-font-specification:'Segoe Print, Bold';text-align:start;writing-mode:lr-tb;text-anchor:start;fill:#ff0000"
             id="path3520" />
        </g>
      </g>
      <g
         id="g3635">
        <path
           id="path3497"
           style="font-style:normal;font-variant:normal;font-weight:bold;font-stretch:normal;font-size:90px;line-height:125%;font-family:sans-serif;-inkscape-font-specification:'sans-serif Bold';text-align:end;letter-spacing:0px;word-spacing:0px;text-anchor:end;fill:#000000;fill-opacity:1;stroke:none;stroke-width:1px;stroke-linecap:butt;stroke-linejoin:miter;stroke-opacity:1"
           d="m 307.8252,218.13159 0,21.80499 q -5.40528,-3.79517 -10.54688,-5.72726 -5.1416,-1.93209 -9.71191,-1.93209 -6.06446,0 -8.96485,2.62212 -2.90039,2.62213 -2.90039,8.14237 0,4.14019 1.9336,6.4863 1.97753,2.27711 7.11914,3.93317 l 7.20703,2.27711 q 10.94238,3.45015 15.55664,10.48848 4.61426,7.03832 4.61426,20.01091 0,17.04377 -6.45997,25.39315 -6.41601,8.28038 -19.64355,8.28038 -6.24023,0 -12.52441,-1.86308 -6.28418,-1.8631 -12.56836,-5.52026 l 0,-22.42603 q 6.28418,5.24425 12.1289,7.93538 5.88867,2.62211 11.33789,2.62211 5.53711,0 8.48145,-2.89814 2.94433,-2.89812 2.94433,-8.28036 0,-4.83022 -2.02148,-7.45235 -1.97754,-2.62212 -7.9541,-4.69221 l -6.54785,-2.2771 q -9.84375,-3.31215 -14.41407,-10.55749 -4.52636,-7.24531 -4.52636,-19.52788 0,-15.38769 6.32812,-23.66807 6.32813,-8.28038 18.19336,-8.28038 5.40528,0 11.11817,1.31106 5.71289,1.24206 11.82129,3.79517 z"
           inkscape:connector-curvature="0" />
        <path
           id="path3499"
           style="font-style:normal;font-variant:normal;font-weight:bold;font-stretch:normal;font-size:90px;line-height:125%;font-family:sans-serif;-inkscape-font-specification:'sans-serif Bold';text-align:end;letter-spacing:0px;word-spacing:0px;text-anchor:end;fill:#000000;fill-opacity:1;stroke:none;stroke-width:1px;stroke-linecap:butt;stroke-linejoin:miter;stroke-opacity:1"
           d="m 348.38672,283.13255 q -4.92188,0 -7.42676,2.62211 -2.46094,2.62212 -2.46094,7.72836 0,4.69221 1.97754,7.38332 2.02149,2.62214 5.58106,2.62214 4.43847,0 7.4707,-4.96824 3.03223,-5.03722 3.03223,-12.55856 l 0,-2.82913 -8.17383,0 z m 24.03808,-9.31543 0,44.09301 -15.86425,0 0,-11.45453 q -3.16407,7.03833 -7.11914,10.28148 -3.95508,3.17414 -9.62403,3.17414 -7.64648,0 -12.43652,-6.96933 -4.74609,-7.03831 -4.74609,-18.21682 0,-13.59362 5.93261,-19.9419 5.97657,-6.34829 18.72071,-6.34829 l 9.27246,0 0,-1.93209 q 0,-5.86526 -2.94434,-8.55639 -2.94434,-2.76012 -9.18457,-2.76012 -5.05371,0 -9.4043,1.58707 -4.35058,1.58707 -8.08593,4.76122 l 0,-18.83785 q 5.05371,-1.93209 10.15136,-2.89814 5.09766,-1.03505 10.19532,-1.03505 13.31543,0 19.2041,8.28038 5.93261,8.21137 5.93261,26.77321 z"
           inkscape:connector-curvature="0" />
        <path
           id="path3501"
           style="font-style:normal;font-variant:normal;font-weight:bold;font-stretch:normal;font-size:90px;line-height:125%;font-family:sans-serif;-inkscape-font-specification:'sans-serif Bold';text-align:end;letter-spacing:0px;word-spacing:0px;text-anchor:end;fill:#000000;fill-opacity:1;stroke:none;stroke-width:1px;stroke-linecap:butt;stroke-linejoin:miter;stroke-opacity:1"
           d="m 432.76172,253.46119 q 2.98828,-7.17632 7.07519,-10.90249 4.13086,-3.79517 9.05274,-3.79517 8.48144,0 12.91992,8.21137 4.43848,8.21138 4.43848,23.87508 l 0,47.06015 -15.82032,0 0,-40.29784 q 0.0439,-0.89704 0.0439,-1.86308 0.0439,-0.96604 0.0439,-2.76012 0,-8.21137 -1.53808,-11.86855 -1.53809,-3.72616 -4.96582,-3.72616 -4.48242,0 -6.94336,5.79626 -2.41699,5.79626 -2.50488,16.76776 l 0,37.95173 -15.82032,0 0,-40.29784 q 0,-12.83457 -1.40625,-16.49175 -1.40625,-3.72616 -5.00976,-3.72616 -4.52637,0 -6.98731,5.86527 -2.46093,5.79625 -2.46093,16.62975 l 0,38.02073 -15.82032,0 0,-77.28351 15.82032,0 0,11.31651 q 2.90039,-6.5553 6.63574,-9.86744 3.7793,-3.31216 8.30566,-3.31216 5.09766,0 9.00879,3.86418 3.91113,3.86418 5.93262,10.83348 z"
           inkscape:connector-curvature="0" />
        <path
           id="path3503"
           style="font-style:normal;font-variant:normal;font-weight:bold;font-stretch:normal;font-size:90px;line-height:125%;font-family:sans-serif;-inkscape-font-specification:'sans-serif Bold';text-align:end;letter-spacing:0px;word-spacing:0px;text-anchor:end;fill:#000000;fill-opacity:1;stroke:none;stroke-width:1px;stroke-linecap:butt;stroke-linejoin:miter;stroke-opacity:1"
           d="m 496.74609,306.73162 0,40.57384 -15.73242,0 0,-106.67884 15.73242,0 0,11.31651 q 3.25196,-6.7623 7.20703,-9.93645 3.95508,-3.24315 9.09668,-3.24315 9.09668,0 14.94141,11.38552 5.84473,11.31651 5.84473,29.18833 0,17.8718 -5.84473,29.25732 -5.84473,11.31652 -14.94141,11.31652 -5.1416,0 -9.09668,-3.17414 -3.95507,-3.24315 -7.20703,-10.00546 z m 10.45899,-50.02728 q -5.05371,0 -7.77832,5.86528 -2.68067,5.79625 -2.68067,16.76776 0,10.97149 2.68067,16.83675 2.72461,5.79627 7.77832,5.79627 5.05371,0 7.69043,-5.79627 2.68066,-5.79625 2.68066,-16.83675 0,-11.0405 -2.68066,-16.83677 -2.63672,-5.79627 -7.69043,-5.79627 z"
           inkscape:connector-curvature="0" />
        <path
           id="path3505"
           style="font-style:normal;font-variant:normal;font-weight:bold;font-stretch:normal;font-size:90px;line-height:125%;font-family:sans-serif;-inkscape-font-specification:'sans-serif Bold';text-align:end;letter-spacing:0px;word-spacing:0px;text-anchor:end;fill:#000000;fill-opacity:1;stroke:none;stroke-width:1px;stroke-linecap:butt;stroke-linejoin:miter;stroke-opacity:1"
           d="m 545.52539,210.54125 15.73242,0 0,107.36888 -15.73242,0 0,-107.36888 z"
           inkscape:connector-curvature="0" />
        <path
           id="path3507"
           style="font-style:normal;font-variant:normal;font-weight:bold;font-stretch:normal;font-size:90px;line-height:125%;font-family:sans-serif;-inkscape-font-specification:'sans-serif Bold';text-align:end;letter-spacing:0px;word-spacing:0px;text-anchor:end;fill:#000000;fill-opacity:1;stroke:none;stroke-width:1px;stroke-linecap:butt;stroke-linejoin:miter;stroke-opacity:1"
           d="m 625.59375,279.06135 0,7.03834 -36.78223,0 q 0.57129,8.69439 3.99903,13.04158 3.42773,4.34721 9.58007,4.34721 4.96583,0 10.15137,-2.27711 5.22949,-2.34611 10.72266,-7.03832 l 0,19.04485 q -5.58106,3.31216 -11.16211,4.96824 -5.58106,1.72508 -11.16211,1.72508 -13.35938,0 -20.78613,-10.62649 -7.38282,-10.69548 -7.38282,-29.94735 0,-18.90687 7.25098,-29.74035 7.29492,-10.8335 20.03906,-10.8335 11.60157,0 18.54493,10.9715 6.9873,10.97149 6.9873,29.32632 z m -16.17188,-8.21137 q 0,-7.03831 -2.63671,-11.31651 -2.59278,-4.34719 -6.81153,-4.34719 -4.57031,0 -7.42676,4.07118 -2.85644,4.00219 -3.55957,11.59252 l 20.43457,0 z"
           inkscape:connector-curvature="0" />
        <g
           transform="matrix(2.603009,0,0,3.2718712,207.28132,149.56932)"
           style="font-style:normal;font-variant:normal;font-weight:bold;font-stretch:normal;font-size:39.99990845px;line-height:125%;font-family:'Segoe Print';-inkscape-font-specification:'Segoe Print, Bold';text-align:start;letter-spacing:0px;word-spacing:0px;writing-mode:lr-tb;text-anchor:start;fill:#ff0000;fill-opacity:1;stroke:none;stroke-width:1px;stroke-linecap:butt;stroke-linejoin:miter;stroke-opacity:1"
           id="flowRoot3452-9">
          <path
             inkscape:connector-curvature="0"
             d="m 36.199171,28.856411 q 0,-1.933589 -0.996091,-2.675775 -0.996092,-0.761717 -2.929681,-0.761717 -3.300774,0 -6.132798,1.62109 -2.812494,1.601559 -2.812494,3.535148 0,1.230466 1.054685,2.10937 1.074216,0.859373 5.5078,2.148433 4.648427,1.347653 6.894516,2.968743 2.265619,1.601559 2.265619,3.867179 0,3.769522 -5.742174,6.914046 -5.742174,3.124993 -11.933566,3.124993 -2.011715,0 -3.222649,-0.839841 -1.210935,-0.839842 -1.210935,-2.070308 0,-0.976561 0.546874,-1.816402 0.546873,-0.839842 1.30859,-0.839842 0.468749,0 0.859374,0.156249 2.050776,0.878905 3.828116,0.878905 3.046868,0 6.835922,-1.699215 3.808585,-1.718746 3.808585,-3.359367 0,-0.683593 -0.957029,-1.308591 -0.937498,-0.64453 -3.847648,-1.601559 -4.238271,-1.386716 -6.386704,-2.285151 -2.128901,-0.898436 -3.24218,-2.343745 -1.093748,-1.46484 -1.093748,-3.515617 0,-3.652335 4.257803,-6.796859 4.257803,-3.144524 9.999977,-3.144524 3.300774,0 5.195301,1.308591 1.914058,1.30859 1.914058,2.988274 0,3.437492 -3.769523,3.437492 z"
             style="font-style:normal;font-variant:normal;font-weight:bold;font-stretch:normal;font-size:39.99990845px;line-height:125%;font-family:'Segoe Print';-inkscape-font-specification:'Segoe Print, Bold';text-align:start;writing-mode:lr-tb;text-anchor:start;fill:#ff0000"
             id="path3523" />
          <path
             inkscape:connector-curvature="0"
             d="m 56.179595,43.309503 q -5.136707,6.777328 -9.921853,6.777328 -1.757808,0 -3.027337,-1.386715 -1.269528,-1.386716 -1.269528,-3.535148 0,-5.17577 4.609365,-11.0156 4.609364,-5.859362 9.296853,-5.859362 2.382807,0 3.124993,2.402338 2.246089,0 2.246089,1.718746 0,0.820311 -0.429687,2.968744 -0.781248,4.023428 -0.781248,6.425766 0,2.499995 0.332031,3.515617 0.351561,1.015623 0.507811,1.328122 0.15625,0.312499 0.937498,0.664061 0.781248,0.371093 0.781248,1.035154 0,0.996091 -1.015623,1.660152 -0.996091,0.664061 -2.089839,0.664061 -3.671866,0 -3.300773,-7.363264 z M 55.007722,32.469684 q -1.972651,0 -5.136707,4.37499 -3.144524,4.355459 -3.144524,7.402327 0,1.601559 0.664061,1.601559 2.304682,0 5.66405,-4.082022 3.378898,-4.101553 3.378898,-7.167953 0,-0.97656 -0.449217,-1.542965 -0.429687,-0.585936 -0.976561,-0.585936 z"
             style="font-style:normal;font-variant:normal;font-weight:bold;font-stretch:normal;font-size:39.99990845px;line-height:125%;font-family:'Segoe Print';-inkscape-font-specification:'Segoe Print, Bold';text-align:start;writing-mode:lr-tb;text-anchor:start;fill:#ff0000"
             id="path3525" />
          <path
             inkscape:connector-curvature="0"
             d="m 71.394404,48.700116 q -0.234375,2.011714 -2.246089,2.011714 -2.558588,0 -2.558588,-3.691398 0,-5.976549 0.64453,-10.21482 0.507811,-3.300774 0.507811,-6.48436 0,-0.761717 0.488281,-1.269529 0.48828,-0.527342 1.367184,-0.527342 2.929681,0 2.929681,3.554679 0,1.152341 -1.035154,5.878893 -0.624999,2.812493 -0.624999,4.082022 5.585925,-12.265597 10.078102,-12.265597 1.816402,0 2.91015,1.445309 1.113278,1.445309 1.152341,6.406235 0.01953,4.53124 0.468749,4.53124 0.351561,0 2.4414,-4.394521 2.324214,-4.86327 3.964835,-6.425767 1.660153,-1.562496 3.476555,-1.562496 2.167963,0 3.144524,1.874995 0.97656,1.855465 1.367184,6.289049 0.292969,3.515617 0.781249,5.312487 0.50781,1.796871 1.71875,2.382807 0.97656,0.468749 0.97656,1.406247 0,0.839842 -1.11328,1.699215 -1.11328,0.839842 -2.265623,0.839842 -1.992183,0 -3.124993,-1.953121 -1.113278,-1.972651 -1.503903,-7.890607 -0.214843,-2.851555 -0.468748,-3.769522 -0.234375,-0.937498 -0.722655,-0.937498 -0.429687,0 -1.249997,1.406247 -0.820311,1.386715 -2.832025,5.546862 -1.77734,3.749992 -3.066399,5.234363 -1.269529,1.484372 -2.734369,1.484372 -1.13281,0 -2.285151,-0.976561 -1.13281,-0.97656 -1.230466,-7.089827 -0.09766,-5.449206 -0.703123,-5.449206 -0.820311,0 -3.945304,4.843739 -3.124993,4.843738 -4.70702,8.671855 z"
             style="font-style:normal;font-variant:normal;font-weight:bold;font-stretch:normal;font-size:39.99990845px;line-height:125%;font-family:'Segoe Print';-inkscape-font-specification:'Segoe Print, Bold';text-align:start;writing-mode:lr-tb;text-anchor:start;fill:#ff0000"
             id="path3527" />
          <path
             inkscape:connector-curvature="0"
             d="m 110.76932,48.465741 q -0.33203,1.367185 -0.66406,4.140616 l -0.9375,7.675763 q -0.23438,1.874996 -0.91797,2.597651 -0.66406,0.722654 -1.64062,0.722654 -0.8789,0 -1.67968,-0.664061 -0.78125,-0.644529 -0.78125,-1.445309 0,-1.582027 0.48828,-3.652335 2.91015,-11.621067 3.18359,-24.121039 l 0,-0.390624 q 0,-2.617181 0.13671,-3.476554 0.15625,-0.878905 0.83985,-1.542966 0.70312,-0.664061 1.97265,-0.664061 2.1289,0 2.1289,3.261712 0,1.328122 -0.48828,4.511708 l -0.19531,1.347653 q 2.22655,-3.710929 5.29295,-6.152329 3.0664,-2.460932 5.48827,-2.460932 2.1875,0 3.71093,1.562496 1.54297,1.562497 1.54297,3.925772 0,6.30858 -4.90234,11.484349 -4.8828,5.156238 -9.66794,5.156238 -2.26562,0 -2.91015,-1.816402 z m 11.46481,-15.87887 q -2.3828,0 -6.19139,4.648427 -3.78905,4.648427 -3.78905,7.304671 0,0.683592 0.66406,1.230466 0.68359,0.527342 1.58203,0.527342 2.48046,0 5.68358,-3.886709 3.22265,-3.906241 3.22265,-7.539046 0,-1.210934 -0.3711,-1.738277 -0.37109,-0.546874 -0.80078,-0.546874 z"
             style="font-style:normal;font-variant:normal;font-weight:bold;font-stretch:normal;font-size:39.99990845px;line-height:125%;font-family:'Segoe Print';-inkscape-font-specification:'Segoe Print, Bold';text-align:start;writing-mode:lr-tb;text-anchor:start;fill:#ff0000"
             id="path3529" />
          <path
             inkscape:connector-curvature="0"
             d="m 139.16769,16.786126 q 2.10937,0 2.10937,2.304682 0,1.054686 -0.29297,2.285152 -0.29297,1.210934 -1.60156,6.035142 -0.95703,3.496086 -1.46484,7.636701 -0.48828,4.121085 -0.48828,6.445298 0,2.480463 0.37109,5.898424 0.0977,0.917967 0.0977,1.152341 0,1.171872 -0.85937,2.011714 -0.85938,0.839842 -1.875,0.839842 -1.38671,0 -1.95312,-1.308591 -0.5664,-1.30859 -0.5664,-4.492177 0,-6.855453 1.60155,-16.152307 1.62109,-9.296853 2.63672,-10.976537 1.03515,-1.679684 2.28515,-1.679684 z"
             style="font-style:normal;font-variant:normal;font-weight:bold;font-stretch:normal;font-size:39.99990845px;line-height:125%;font-family:'Segoe Print';-inkscape-font-specification:'Segoe Print, Bold';text-align:start;writing-mode:lr-tb;text-anchor:start;fill:#ff0000"
             id="path3531" />
          <path
             inkscape:connector-curvature="0"
             d="m 160.90592,43.133722 q 0,2.031246 -3.41797,4.86327 -3.41796,2.812494 -7.71482,2.812494 -3.30078,0 -5.1953,-2.070308 -1.89453,-2.089839 -1.89453,-5.800768 0,-5.468737 3.86718,-10.253883 3.86718,-4.785145 8.2617,-4.785145 2.18749,0 3.51562,1.386716 1.32812,1.386715 1.32812,3.300773 0,3.39843 -3.26171,6.484361 -3.26171,3.066399 -8.35936,4.238271 -0.58594,0.136718 -0.58594,0.703123 0,0.937498 0.82032,1.796871 0.83984,0.839842 2.22655,0.839842 3.92577,0 7.79295,-4.042959 0.74219,-0.781249 1.44531,-0.781249 1.17188,0 1.17188,1.308591 z m -13.10544,-3.457023 q 3.08593,-0.624999 5.42967,-2.636713 2.36328,-2.011714 2.36328,-3.652335 0,-0.64453 -0.3711,-1.074217 -0.35156,-0.449217 -0.91796,-0.449217 -1.69922,0 -3.76952,2.499994 -2.07031,2.499994 -2.73437,5.312488 z"
             style="font-style:normal;font-variant:normal;font-weight:bold;font-stretch:normal;font-size:39.99990845px;line-height:125%;font-family:'Segoe Print';-inkscape-font-specification:'Segoe Print, Bold';text-align:start;writing-mode:lr-tb;text-anchor:start;fill:#ff0000"
             id="path3533" />
        </g>
      </g>
    </g>
  </g>
</svg>
